@startuml

hide empty description
skinparam dpi 300
skinparam ActorFontSize 15
skinparam UsecaseFontSize 12

[*] --> signed_in : login
signed_in -> store_selected : select_store
store_selected -> waiting_in_line : join_line
store_selected -> slot_reserved : book_a_visit
waiting_in_line --> qr_code_scanned
slot_reserved --> qr_code_scanned
qr_code_scanned --> signed_in
qr_code_scanned --> [*]

@enduml